<?xml version="1.0" encoding="UTF-8" standalone="no"?>
<!-- Created with Inkscape (http://www.inkscape.org/) -->

<svg
   version="1.1"
   id="svg2"
   width="2378.3999"
   height="2589.0667"
   viewBox="0 0 2378.3999 2589.0667"
   sodipodi:docname="vecteezy_logo-for-the-game-overwatch-a-minimalist-logo-that-embodies_.eps"
   xmlns:inkscape="http://www.inkscape.org/namespaces/inkscape"
   xmlns:sodipodi="http://sodipodi.sourceforge.net/DTD/sodipodi-0.dtd"
   xmlns="http://www.w3.org/2000/svg"
   xmlns:svg="http://www.w3.org/2000/svg">
  <defs
     id="defs6">
    <clipPath
       clipPathUnits="userSpaceOnUse"
       id="clipPath40">
      <path
         d="m 12491,10599 2090,3631 653,-1137 5012,2381 -2169,21 287,-538 c -21,-24 -57,-35 -86,-48 l -169,-89 c -149,332 -357,654 -551,962 l 3860,-10 -1439,-2237 -934,-1487 -278,-443 c -22,-35 -49,-98 -77,-126 -52,-52 -199,-96 -272,-129 l -1022,-452 -1173,-533 -700,-252 1615,2 -4633,-7266 -17,2 -20,41 -4673,7195 1603,-1 c -351,112 -692,288 -1025,445 l -1334,620 -535,232 c -45,20 -143,50 -176,83 -35,35 -68,112 -96,156 l -377,607 -992,1562 c -23,21 -45,68 -64,95 l -142,213 -1077,1674 3822,-10 -178,-285 -283,5 -2220,-6 5083,-2427 627,1134 793,-1401 729,-1247 c 180,-308 330,-648 538,-937 z"
         id="path38" />
    </clipPath>
    <linearGradient
       x1="0"
       y1="0"
       x2="1"
       y2="0"
       gradientUnits="userSpaceOnUse"
       gradientTransform="matrix(-4737.79,5786.12,-5786.12,-4737.79,18335.5,7623.1)"
       spreadMethod="pad"
       id="linearGradient46">
      <stop
         style="stop-opacity:1;stop-color:#481a39"
         offset="0"
         id="stop42" />
      <stop
         style="stop-opacity:1;stop-color:#6fcdad"
         offset="1"
         id="stop44" />
    </linearGradient>
    <clipPath
       clipPathUnits="userSpaceOnUse"
       id="clipPath58">
      <path
         d="m 4864,13789 c -23,21 -45,68 -64,95 l -142,213 -1077,1674 3822,-10 -178,-285 -283,5 -2220,-6 5082,-2425 627,1134 793,-1401 729,-1247 c 179,-307 329,-648 537,-936 -25,-126 -16,-264 -17,-392 l -2,-694 4,-1011 c 1,-188 -7,-380 4,-567 2,-29 4,-17 -6,-39 -49,51 -90,126 -131,185 l -372,581 -1012,1600 -728,1146 -300,488 c -23,38 -61,124 -93,152 -10,9 -47,20 -61,25 l -164,77 -1709,803 -1786,862 -1289,602 285,-450 529,-821 417,-650 c 28,-42 75,-133 114,-161 36,-26 114,-42 156,-62 l 708,-336 1195,-563 c 297,-142 596,-295 902,-418 l -2,211 -727,343 -1593,752 -354,162 c -34,15 -99,35 -124,58 -24,22 -49,69 -68,97 l -180,275 -510,831 c 46,-10 94,-42 137,-63 l 280,-137 823,-388 1559,-743 1250,-592 c 85,-168 189,-326 288,-486 l 717,-1125 1197,-1878 435,-682 c 70,-109 136,-224 212,-329 v -881 l 2,-1557 11,-1858 c -1,-27 -5,-51 -18,-75 l -4674,7195 1603,-1 c -351,112 -692,288 -1025,445 l -1334,620 -535,232 c -45,20 -143,50 -176,83 -35,35 -68,112 -96,156 l -377,607 z"
         id="path56" />
    </clipPath>
    <linearGradient
       x1="0"
       y1="0"
       x2="1"
       y2="0"
       gradientUnits="userSpaceOnUse"
       gradientTransform="matrix(4688.43,6058.95,-6058.95,4688.43,6578.32,7461.9)"
       spreadMethod="pad"
       id="linearGradient64">
      <stop
         style="stop-opacity:1;stop-color:#271419"
         offset="0"
         id="stop60" />
      <stop
         style="stop-opacity:1;stop-color:#5cc7a4"
         offset="1"
         id="stop62" />
    </linearGradient>
  </defs>
  <sodipodi:namedview
     id="namedview4"
     pagecolor="#ffffff"
     bordercolor="#000000"
     borderopacity="0.25"
     inkscape:showpageshadow="2"
     inkscape:pageopacity="0.0"
     inkscape:pagecheckerboard="0"
     inkscape:deskcolor="#d1d1d1"
     showgrid="false" />
  <g
     id="g10"
     inkscape:groupmode="layer"
     inkscape:label="Page 1"
     transform="matrix(1.3333333,0,0,-1.3333333,1544.6666,3048.0889)">
    <g
       id="g12"
       transform="matrix(0.1,0,0,0.1,-1516.5,59.366754)">
      <path
         d="m 6942,15481 283,-5 c -116,-210 -235,-432 -316,-658 l -244,103 c 75,189 162,393 277,560"
         style="fill:#203343;fill-opacity:1;fill-rule:nonzero;stroke:none"
         id="path16" />
      <path
         d="m 12487,11354 -4,1 c -43,17 -96,144 -122,187 l -459,799 -1005,1788 684,3 695,1942 130,355 c 17,47 33,120 68,156 l 13,-27 c -30,-84 -11,-212 -10,-303 l 4,-674 -1,-3034 7,-1193"
         style="fill:#5fa5a3;fill-opacity:1;fill-rule:nonzero;stroke:none"
         id="path18" />
      <path
         d="m 12487,11354 -7,1193 1,3034 -4,674 c -1,91 -20,219 10,303 40,-48 61,-112 83,-170 l 125,-337 717,-1923 680,-5 -1233,-2177 -235,-399 c -35,-57 -80,-156 -137,-193"
         style="fill:#d3d9d4;fill-opacity:1;fill-rule:nonzero;stroke:none"
         id="path20" />
      <path
         d="m 12498,16797 3,882 1,1878 v 1715 l 1,833 c 2,39 10,70 30,105 l 1513,-3150 -1009,371 -8,-2673 -531,39"
         style="fill:#f14f28;fill-opacity:1;fill-rule:nonzero;stroke:none"
         id="path22" />
      <path
         d="m 12498,16797 -558,-40 -2,2661 -970,-361 956,2010 446,945 c 29,60 85,222 135,255 l 26,-56 c -19,-35 -28,-66 -30,-105 l -1,-833 v -1715 l 1,-1879 -3,-882"
         style="fill:#ec3920;fill-opacity:1;fill-rule:nonzero;stroke:none"
         id="path24" />
      <path
         d="m 4957,13223 218,-351 782,-1251 c 59,-95 110,-196 173,-287 15,-22 36,-60 55,-77 13,-11 50,-21 66,-28 l 190,-82 304,-151 c 32,-149 99,-298 159,-438 300,-700 736,-1335 1275,-1873 l 371,-342 c 71,-62 161,-125 222,-197 50,-59 88,-132 133,-196 l 336,-486 700,-1058 419,-666 -993,418 c -235,107 -473,216 -697,345 -532,306 -1031,690 -1472,1117 -1078,1043 -1826,2493 -2099,3965 -102,546 -133,1083 -142,1638"
         style="fill:#203343;fill-opacity:1;fill-rule:nonzero;stroke:none"
         id="path26" />
      <path
         d="m 20028,13172 c 50,-1226 -239,-2454 -775,-3552 -718,-1472 -1959,-2658 -3412,-3400 -391,-200 -806,-362 -1221,-505 30,74 86,146 130,213 l 249,376 645,1013 329,538 c 56,94 123,252 197,328 61,62 146,112 214,167 l 346,302 c 518,489 945,1069 1244,1717 l 233,575 c 79,44 167,76 248,114 108,50 210,111 329,127 l 19,2 c 58,58 100,148 144,219 l 314,508 767,1258"
         style="fill:#203343;fill-opacity:1;fill-rule:nonzero;stroke:none"
         id="path28" />
      <path
         d="m 17999,19415 c 23,4 10,4 37,0 l -676,-2564 -332,651 -5,12 -98,7 c -62,-29 -122,-109 -171,-159 -175,-178 -354,-361 -511,-556 235,-212 461,-428 666,-670 227,-269 432,-575 611,-877 105,-178 211,-360 287,-552 -55,-61 -209,-116 -286,-154 l -1016,-479 c -283,688 -753,1315 -1340,1773 -196,153 -409,281 -622,407 -369,200 -776,361 -1187,449 l -6,1701 c 138,-10 280,-48 414,-80 568,-135 1129,-331 1633,-629 99,-59 208,-117 292,-197 l -724,-942 c 101,65 198,202 282,291 l 1198,1330 c -77,41 -178,56 -262,75 l -477,94 c 11,17 439,196 487,219 l 1806,850"
         style="fill:#325562;fill-opacity:1;fill-rule:nonzero;stroke:none"
         id="path30" />
      <path
         d="m 6848,19480 2619,-1094 -882,-242 852,-934 c 184,-198 373,-414 579,-590 -71,120 -170,222 -254,332 l -428,567 c 669,458 1510,752 2306,882 l -3,-1709 c -431,-106 -824,-257 -1217,-465 -674,-379 -1248,-925 -1657,-1583 -116,-186 -212,-385 -308,-581 l -1258,593 c 101,282 249,552 406,806 317,513 689,974 1145,1370 l -756,761 -210,-858 -934,2745"
         style="fill:#203343;fill-opacity:1;fill-rule:nonzero;stroke:none"
         id="path32" />
      <g
         id="g34">
        <g
           id="g36"
           clip-path="url(#clipPath40)">
          <path
             d="m 12491,10599 2090,3631 653,-1137 5012,2381 -2169,21 287,-538 c -21,-24 -57,-35 -86,-48 l -169,-89 c -149,332 -357,654 -551,962 l 3860,-10 -1439,-2237 -934,-1487 -278,-443 c -22,-35 -49,-98 -77,-126 -52,-52 -199,-96 -272,-129 l -1022,-452 -1173,-533 -700,-252 1615,2 -4633,-7266 -17,2 -20,41 -4673,7195 1603,-1 c -351,112 -692,288 -1025,445 l -1334,620 -535,232 c -45,20 -143,50 -176,83 -35,35 -68,112 -96,156 l -377,607 -992,1562 c -23,21 -45,68 -64,95 l -142,213 -1077,1674 3822,-10 -178,-285 -283,5 -2220,-6 5083,-2427 627,1134 793,-1401 729,-1247 c 180,-308 330,-648 538,-937"
             style="fill:url(#linearGradient46);fill-opacity:1;fill-rule:nonzero;stroke:none"
             id="path48" />
        </g>
      </g>
      <path
         d="m 12474,7896 c 6,-7 15,-13 22,-19 l 809,1281 1030,1612 677,1080 c 34,53 75,155 122,195 16,13 56,26 75,35 l 204,94 932,435 2468,1178 1370,643 -483,-776 -666,-1047 c -50,-74 -110,-189 -176,-245 -66,-57 -193,-91 -273,-129 l -1214,-568 -1117,-526 c -186,-88 -372,-189 -564,-263 l 1,220 2121,998 696,330 c 62,30 157,59 204,106 37,37 63,93 90,138 l 160,271 487,788 -1081,-533 -1557,-739 -1043,-489 -258,-124 c -45,-22 -98,-43 -133,-81 -64,-71 -116,-177 -168,-260 l -436,-690 -1553,-2421 -675,-1061 c -23,-33 -33,-50 -70,-67 -77,105 -142,220 -212,329 l -435,682 -1198,1879 -715,1123 c -99,160 -204,318 -288,486 l -1250,592 -1559,743 -823,388 -280,137 c -43,21 -91,53 -137,63 l 510,-831 180,-275 c 19,-27 44,-75 68,-97 25,-23 90,-43 124,-58 l 354,-162 1593,-752 727,-343 2,-211 c -306,123 -604,275 -902,418 l -1195,563 -708,336 c -43,20 -121,37 -156,62 -39,28 -86,119 -114,161 l -417,650 -529,821 -285,450 1289,-602 1786,-862 1708,-803 164,-77 c 13,-6 51,-17 61,-25 32,-28 70,-114 93,-152 l 300,-488 728,-1146 1014,-1602 372,-581 c 39,-57 80,-131 129,-182"
         style="fill:#ffffff;fill-opacity:1;fill-rule:nonzero;stroke:none"
         id="path50" />
      <g
         id="g52">
        <g
           id="g54"
           clip-path="url(#clipPath58)">
          <path
             d="m 4864,13789 c -23,21 -45,68 -64,95 l -142,213 -1077,1674 3822,-10 -178,-285 -283,5 -2220,-6 5082,-2425 627,1134 793,-1401 729,-1247 c 179,-307 329,-648 537,-936 -25,-126 -16,-264 -17,-392 l -2,-694 4,-1011 c 1,-188 -7,-380 4,-567 2,-29 4,-17 -6,-39 -49,51 -90,126 -131,185 l -372,581 -1012,1600 -728,1146 -300,488 c -23,38 -61,124 -93,152 -10,9 -47,20 -61,25 l -164,77 -1709,803 -1786,862 -1289,602 285,-450 529,-821 417,-650 c 28,-42 75,-133 114,-161 36,-26 114,-42 156,-62 l 708,-336 1195,-563 c 297,-142 596,-295 902,-418 l -2,211 -727,343 -1593,752 -354,162 c -34,15 -99,35 -124,58 -24,22 -49,69 -68,97 l -180,275 -510,831 c 46,-10 94,-42 137,-63 l 280,-137 823,-388 1559,-743 1250,-592 c 85,-168 189,-326 288,-486 l 717,-1125 1197,-1878 435,-682 c 70,-109 136,-224 212,-329 v -881 l 2,-1557 11,-1858 c -1,-27 -5,-51 -18,-75 l -4674,7195 1603,-1 c -351,112 -692,288 -1025,445 l -1334,620 -535,232 c -45,20 -143,50 -176,83 -35,35 -68,112 -96,156 l -377,607 -991,1560"
             style="fill:url(#linearGradient64);fill-opacity:1;fill-rule:nonzero;stroke:none"
             id="path66" />
        </g>
      </g>
    </g>
  </g>
</svg>
